{"title":"X Men First Class(2011)MP-4[DaScubaDude]","uid":12359347,"size":1319694897,"categoryP":"video","categoryS":"movies","magnet":"?xt=urn:btih:9cf7c5924d826f7708f4d48e5c838a61c1cf0332&amp;dn=X+Men+First+Class%282011%29MP-4%5BDaScubaDude%5D&amp;tr=udp%3A%2F%2Ftracker.openbittorrent.com%3A80&amp;tr=udp%3A%2F%2Fopen.demonii.com%3A1337&amp;tr=udp%3A%2F%2Ftracker.coppersurfer.tk%3A6969&amp;tr=udp%3A%2F%2Fexodus.desync.com%3A6969","seeders":0,"leechers":0,"uploader":"dascuba","files":1,"time":1441512483,"description":"X-Men: First Class (2011)\nPG-13  |  132 min  |  Action, Adventure, Sci-Fi  |  3 June 2011 (USA)\n7.8 Your rating:   -/10   Ratings: 7.8/10 from 461,823 users   Metascore: 65/100 \nReviews: 687 user | 479 critic | 38 from Metacritic.com\nIn 1962, the United States government enlists the help of Mutants with superhuman abilities to stop a malicious dictator who is determined to start World War III.\n\nDirector: Matthew Vaughn\nWriters: Ashley Miller (screenplay) (as Ashley Edward Miller) , Zack Stentz (screenplay), 4 more credits Â»\nStars: James McAvoy, Michael Fassbender, Jennifer Lawrence\n\nGeneral\nComplete name                   : C:X MEN FIRST CLASSXMEN_FIRST_CLASS_Title1.mp4\nFormat                                   : MPEG-4\nFormat profile                           : Base Media\nCodec ID                                 : isom\nFile size                                : 1.23 GiB\nDuration                                 : 2h 11mn\nOverall bit rate                         : 1 337 Kbps\nMovie name                               : XMEN_FIRST_CLASS\nGenre                                    : Action\nWriting application                      : Lavf54.6.100\n\nVideo\nID                                       : 1\nFormat                                   : AVC\nFormat/Info                              : Advanced Video Codec\nFormat profile                           : Baseline@L3\nFormat settings, CABAC                   : No\nFormat settings, ReFrames                : 6 frames\nCodec ID                                 : avc1\nCodec ID/Info                            : Advanced Video Coding\nDuration                                 : 2h 11mn\nBit rate                                 : 1 202 Kbps\nWidth                                    : 720 pixels\nHeight                                   : 404 pixels\nDisplay aspect ratio                     : 16:9\nFrame rate mode                          : Constant\nFrame rate                               : 29.970 fps\nColor space                              : YUV\nChroma subsampling                       : 4:2:0\nBit depth                                : 8 bits\nScan type                                : Progressive\nBits/(Pixel*Frame)                       : 0.138\nStream size                              : 1.11 GiB (90%)\n\nAudio\nID                                       : 2\nFormat                                   : AAC\nFormat/Info                              : Advanced Audio Codec\nFormat profile                           : LC\nCodec ID                                 : 40\nDuration                                 : 2h 11mn\nBit rate mode                            : Constant\nBit rate                                 : 128 Kbps\nChannel(s)                               : 2 channels\nChannel positions                        : Front: L R\nSampling rate                            : 44.1 KHz\nCompression mode                         : Lossy\nStream size                              : 120 MiB (10%)","torrent":{"xt":"urn:btih:9cf7c5924d826f7708f4d48e5c838a61c1cf0332","amp;dn":"X+Men+First+Class%282011%29MP-4%5BDaScubaDude%5D","amp;tr":["udp%3A%2F%2Ftracker.openbittorrent.com%3A80","udp%3A%2F%2Fopen.demonii.com%3A1337","udp%3A%2F%2Ftracker.coppersurfer.tk%3A6969","udp%3A%2F%2Fexodus.desync.com%3A6969"],"infoHash":"9cf7c5924d826f7708f4d48e5c838a61c1cf0332","infoHashBuffer":{"type":"Buffer","data":[156,247,197,146,77,130,111,119,8,244,212,142,92,131,138,97,193,207,3,50]},"announce":[],"urlList":[]}}